<svg width="45" height="45" viewBox="0 0 45 45" fill="none" xmlns="http://www.w3.org/2000/svg">
<path d="M18.1172 22.5C18.1172 24.8785 20.0453 26.8066 22.4238 26.8066C24.8024 26.8066 26.7305 24.8785 26.7305 22.5C26.7305 20.1215 24.8024 18.1934 22.4238 18.1934C20.0453 18.1934 18.1172 20.1215 18.1172 22.5Z" fill="#CACACA"/>
<path d="M12.3517 14.8803C12.5587 14.3194 12.889 13.8116 13.3182 13.3948C13.735 12.9656 14.2424 12.6354 14.8037 12.4283C15.259 12.2515 15.9429 12.0411 17.2025 11.9837C18.5652 11.9216 18.9737 11.9082 22.4234 11.9082C25.8735 11.9082 26.282 11.9212 27.6443 11.9834C28.904 12.0411 29.5882 12.2515 30.0431 12.4283C30.6045 12.6354 31.1122 12.9656 31.5287 13.3948C31.9578 13.8116 32.2881 14.319 32.4955 14.8803C32.6723 15.3356 32.8828 16.0198 32.9401 17.2795C33.0022 18.6418 33.0156 19.0503 33.0156 22.5004C33.0156 25.9501 33.0022 26.3587 32.9401 27.7213C32.8828 28.981 32.6723 29.6649 32.4955 30.1201C32.2881 30.6814 31.9582 31.1889 31.529 31.6057C31.1122 32.0348 30.6048 32.3651 30.0435 32.5721C29.5882 32.7493 28.904 32.9597 27.6443 33.0171C26.282 33.0792 25.8738 33.0922 22.4238 33.0922C18.9734 33.0922 18.5648 33.0792 17.2029 33.0171C15.9432 32.9597 15.259 32.7493 14.8037 32.5721C13.6769 32.1375 12.7864 31.2469 12.3517 30.1201C12.1749 29.6649 11.9644 28.981 11.9068 27.7213C11.8446 26.3587 11.8316 25.9501 11.8316 22.5004C11.8316 19.0503 11.8446 18.6418 11.9068 17.2795C11.9641 16.0198 12.1746 15.3356 12.3517 14.8803ZM22.4234 29.1344C26.0877 29.1344 29.0581 26.1643 29.0581 22.5001C29.0581 18.8358 26.0877 15.8657 22.4234 15.8657C18.7595 15.8657 15.7891 18.8358 15.7891 22.5001C15.7891 26.1643 18.7595 29.1344 22.4234 29.1344ZM15.5268 17.1538C16.383 17.1538 17.0772 16.4596 17.0772 15.6034C17.0772 14.7471 16.383 14.0529 15.5268 14.0529C14.6705 14.0529 13.9763 14.7471 13.9763 15.6034C13.9767 16.4596 14.6705 17.1538 15.5268 17.1538Z" fill="#CACACA"/>
<path d="M22.6204 0C34.9364 0 44.9238 9.98747 44.9238 22.3034C44.9238 34.6194 34.9364 44.6069 22.6204 44.6069C10.3044 44.6069 0.316959 34.6194 0.316959 22.3034C0.316959 9.98747 10.3044 0 22.6204 0ZM9.89059 27.5836C9.95253 28.9469 10.1693 29.8777 10.4858 30.6924C11.1512 32.4127 12.5111 33.7727 14.2314 34.438C15.0458 34.7545 15.9769 34.971 17.3399 35.0332C18.7057 35.0955 19.1419 35.1105 22.6201 35.1105C26.0985 35.1105 26.5345 35.0955 27.9005 35.0332C29.2635 34.971 30.1946 34.7545 31.009 34.438C31.8639 34.1164 32.6378 33.6124 33.2776 32.9607C33.929 32.3212 34.433 31.547 34.7546 30.6924C35.0711 29.878 35.2879 28.9469 35.3498 27.5839C35.4128 26.2178 35.4274 25.7815 35.4274 22.3034C35.4274 18.8253 35.4128 18.389 35.3502 17.0233C35.2883 15.66 35.0718 14.7292 34.7553 13.9145C34.4337 13.0599 33.9293 12.2857 33.2776 11.6462C32.6382 10.9945 31.8639 10.4905 31.0094 10.1689C30.1946 9.85236 29.2638 9.63592 27.9005 9.57364C26.5348 9.51136 26.0985 9.49638 22.6204 9.49638C19.1423 9.49638 18.706 9.51136 17.3403 9.57398C15.9769 9.63592 15.0462 9.85236 14.2314 10.1685C13.3769 10.4901 12.6026 10.9945 11.9628 11.6462C11.3114 12.286 10.8071 13.0599 10.4858 13.9145C10.169 14.7292 9.95253 15.66 9.89025 17.0233C9.82798 18.389 9.81334 18.8253 9.81334 22.3034C9.81334 25.7815 9.82798 26.2178 9.89059 27.5836Z" fill="#CACACA"/>
</svg>
